<?xml version="1.0" standalone="no"?>
<svg xmlns="http://www.w3.org/2000/svg" xmlns:xlink="http://www.w3.org/1999/xlink" version="1.1" class="basic-horizontal-bar-chart" width="798" height="598" style="background-color: transparent; font-size: 16px; font-family: &quot;思源黑体 常规&quot;; letter-spacing: 0px; user-select: none;"><defs><filter x="-10%" y="-10%" width="180%" height="180%" id="Drop_Shadow_basicHorizontal" filterUnits="objectBoundingBox"><feGaussianBlur in="SourceAlpha" stdDeviation="0" result="blurredAlpha"/><feOffset in="blurredAlpha" dx="0.5" dy="0.7" result="offsetBlurredAlpha"/><feFlood result="flooded" style="flood-color: rgb(255, 255, 255); flood-opacity: 0.5;"/><feComposite in="flooded" in2="offsetBlurredAlpha" operator="in" result="coloredShadow"/><feComposite in="SourceGraphic" in2="coloredShadow" operator="over"/></filter></defs><g class="svg-group" opacity="1" transform="translate(24,20)"><g class="main-group" transform="translate(0,0)"><g class="core-group"><g class="plane-grid" transform="translate(52.379974365234375,0)"><g class="" style="fill: none; stroke: rgb(204, 204, 204); stroke-width: 1; stroke-dasharray: 3, 3; pointer-events: none;"/></g></g><g class="axis-x-line" transform="translate(51.879974365234375,529)"><g><g class="axis-group" fill="none" font-size="10" font-family="sans-serif" text-anchor="middle" style="font-size: 16px; font-family: &quot;思源黑体 常规&quot;;"><path class="domain" stroke="#000" d="M0.5,0.5V0.5H698.6200256347656V0.5" style="stroke: rgb(191, 191, 191); stroke-width: 1; display: block;"/><g class="tick" opacity="1" transform="translate(0.5,0)"><line stroke="#000" y2="5" style="stroke: rgb(191, 191, 191); stroke-width: 1;"/><text fill="#000" y="8" dy="0.9em" dx="0" transform="translate(0,0) rotate(0)" style="fill: rgb(84, 84, 84); text-anchor: middle;">0</text></g><g class="tick" opacity="1" transform="translate(63.821544275262184,0)"><line stroke="#000" y2="5" style="stroke: rgb(191, 191, 191); stroke-width: 1;"/><text fill="#000" y="8" dy="0.9em" dx="0" transform="translate(0,0) rotate(0)" style="fill: rgb(84, 84, 84); text-anchor: middle;">2</text></g><g class="tick" opacity="1" transform="translate(127.14308855052437,0)"><line stroke="#000" y2="5" style="stroke: rgb(191, 191, 191); stroke-width: 1;"/><text fill="#000" y="8" dy="0.9em" dx="0" transform="translate(0,0) rotate(0)" style="fill: rgb(84, 84, 84); text-anchor: middle;">4</text></g><g class="tick" opacity="1" transform="translate(190.46463282578654,0)"><line stroke="#000" y2="5" style="stroke: rgb(191, 191, 191); stroke-width: 1;"/><text fill="#000" y="8" dy="0.9em" dx="0" transform="translate(0,0) rotate(0)" style="fill: rgb(84, 84, 84); text-anchor: middle;">6</text></g><g class="tick" opacity="1" transform="translate(253.78617710104874,0)"><line stroke="#000" y2="5" style="stroke: rgb(191, 191, 191); stroke-width: 1;"/><text fill="#000" y="8" dy="0.9em" dx="0" transform="translate(0,0) rotate(0)" style="fill: rgb(84, 84, 84); text-anchor: middle;">8</text></g><g class="tick" opacity="1" transform="translate(317.1077213763109,0)"><line stroke="#000" y2="5" style="stroke: rgb(191, 191, 191); stroke-width: 1;"/><text fill="#000" y="8" dy="0.9em" dx="0" transform="translate(0,0) rotate(0)" style="fill: rgb(84, 84, 84); text-anchor: middle;">10</text></g><g class="tick" opacity="1" transform="translate(380.4292656515731,0)"><line stroke="#000" y2="5" style="stroke: rgb(191, 191, 191); stroke-width: 1;"/><text fill="#000" y="8" dy="0.9em" dx="0" transform="translate(0,0) rotate(0)" style="fill: rgb(84, 84, 84); text-anchor: middle;">12</text></g><g class="tick" opacity="1" transform="translate(443.7508099268353,0)"><line stroke="#000" y2="5" style="stroke: rgb(191, 191, 191); stroke-width: 1;"/><text fill="#000" y="8" dy="0.9em" dx="0" transform="translate(0,0) rotate(0)" style="fill: rgb(84, 84, 84); text-anchor: middle;">14</text></g><g class="tick" opacity="1" transform="translate(507.0723542020975,0)"><line stroke="#000" y2="5" style="stroke: rgb(191, 191, 191); stroke-width: 1;"/><text fill="#000" y="8" dy="0.9em" dx="0" transform="translate(0,0) rotate(0)" style="fill: rgb(84, 84, 84); text-anchor: middle;">16</text></g><g class="tick" opacity="1" transform="translate(570.3938984773597,0)"><line stroke="#000" y2="5" style="stroke: rgb(191, 191, 191); stroke-width: 1;"/><text fill="#000" y="8" dy="0.9em" dx="0" transform="translate(0,0) rotate(0)" style="fill: rgb(84, 84, 84); text-anchor: middle;">18</text></g><g class="tick" opacity="1" transform="translate(633.7154427526218,0)"><line stroke="#000" y2="5" style="stroke: rgb(191, 191, 191); stroke-width: 1;"/><text fill="#000" y="8" dy="0.9em" dx="0" transform="translate(0,0) rotate(0)" style="fill: rgb(84, 84, 84); text-anchor: middle;">20</text></g><g class="tick" opacity="1" transform="translate(697.036987027884,0)"><line stroke="#000" y2="5" style="stroke: rgb(191, 191, 191); stroke-width: 1;"/><text fill="#000" y="8" dy="0.9em" dx="0" transform="translate(0,0) rotate(0)" style="fill: rgb(84, 84, 84); text-anchor: middle;">22</text></g></g></g></g><g class="axis-y-horizontal" transform="translate(51.879974365234375,0)"><g><g class="axis-group" fill="none" font-size="10" font-family="sans-serif" text-anchor="end"><path class="domain" stroke="#000" transform="translate(0,0)" d="M0.5,529.5H0.5V0.5H0.5" style="stroke: rgb(191, 191, 191); stroke-width: 1; display: block;"/><g class="tick" opacity="1" transform="translate(0,476.09999999999997)"><line stroke="#000" x2="-5" transform="translate(0,0)" style="stroke: rgb(191, 191, 191); display: block; stroke-width: 1;"/><text fill="#000" x="-11" dy="0.32em" style="font-size: 16px; font-family: &quot;思源黑体 常规&quot;; fill: rgb(84, 84, 84); display: block;">用户1</text></g><g class="tick" opacity="1" transform="translate(0,370.29999999999995)"><line stroke="#000" x2="-5" transform="translate(0,0)" style="stroke: rgb(191, 191, 191); display: block; stroke-width: 1;"/><text fill="#000" x="-11" dy="0.32em" style="font-size: 16px; font-family: &quot;思源黑体 常规&quot;; fill: rgb(84, 84, 84); display: block;">用户2</text></g><g class="tick" opacity="1" transform="translate(0,264.5)"><line stroke="#000" x2="-5" transform="translate(0,0)" style="stroke: rgb(191, 191, 191); display: block; stroke-width: 1;"/><text fill="#000" x="-11" dy="0.32em" style="font-size: 16px; font-family: &quot;思源黑体 常规&quot;; fill: rgb(84, 84, 84); display: block;">用户3</text></g><g class="tick" opacity="1" transform="translate(0,158.7)"><line stroke="#000" x2="-5" transform="translate(0,0)" style="stroke: rgb(191, 191, 191); display: block; stroke-width: 1;"/><text fill="#000" x="-11" dy="0.32em" style="font-size: 16px; font-family: &quot;思源黑体 常规&quot;; fill: rgb(84, 84, 84); display: block;">用户4</text></g><g class="tick" opacity="1" transform="translate(0,52.9)"><line stroke="#000" x2="-5" transform="translate(0,0)" style="stroke: rgb(191, 191, 191); display: block; stroke-width: 1;"/><text fill="#000" x="-11" dy="0.32em" style="font-size: 16px; font-family: &quot;思源黑体 常规&quot;; fill: rgb(84, 84, 84); display: block;">用户5</text></g></g></g></g><g class="core-group" transform="translate(52.379974365234375,0)"><g class="basic-horizontal-bar"><g><g class="horizontal-bar-rects"><path d="&#10;    M0 449.65&#10;    A0 0 0 0 1 0 449.65&#10;    H379.9292656515731&#10;    A0 0 0 0 1 379.9292656515731 449.65&#10;    V502.54999999999995&#10;    A0 0 0 0 1 379.9292656515731 502.54999999999995&#10;    H0&#10;    A0 0 0 0 1 0 502.54999999999995&#10;    Z&#10;  " style="fill: rgb(69, 90, 100); fill-opacity: 1; stroke-width: 0; stroke: rgb(69, 90, 100);"/><path d="&#10;    M0 343.85&#10;    A0 0 0 0 1 0 343.85&#10;    H284.94694923867985&#10;    A0 0 0 0 1 284.94694923867985 343.85&#10;    V396.75&#10;    A0 0 0 0 1 284.94694923867985 396.75&#10;    H0&#10;    A0 0 0 0 1 0 396.75&#10;    Z&#10;  " style="fill: rgb(69, 90, 100); fill-opacity: 1; stroke-width: 0; stroke: rgb(69, 90, 100);"/><path d="&#10;    M0 238.05&#10;    A0 0 0 0 1 0 238.05&#10;    H664.876214890253&#10;    A0 0 0 0 1 664.876214890253 238.05&#10;    V290.95&#10;    A0 0 0 0 1 664.876214890253 290.95&#10;    H0&#10;    A0 0 0 0 1 0 290.95&#10;    Z&#10;  " style="fill: rgb(69, 90, 100); fill-opacity: 1; stroke-width: 0; stroke: rgb(69, 90, 100);"/><path d="&#10;    M0 132.25000000000006&#10;    A0 0 0 0 1 0 132.25000000000006&#10;    H443.2508099268353&#10;    A0 0 0 0 1 443.2508099268353 132.25000000000006&#10;    V185.15000000000006&#10;    A0 0 0 0 1 443.2508099268353 185.15000000000006&#10;    H0&#10;    A0 0 0 0 1 0 185.15000000000006&#10;    Z&#10;  " style="fill: rgb(69, 90, 100); fill-opacity: 1; stroke-width: 0; stroke: rgb(69, 90, 100);"/><path d="&#10;    M0 26.450000000000045&#10;    A0 0 0 0 1 0 26.450000000000045&#10;    H474.9115820644664&#10;    A0 0 0 0 1 474.9115820644664 26.450000000000045&#10;    V79.35000000000005&#10;    A0 0 0 0 1 474.9115820644664 79.35000000000005&#10;    H0&#10;    A0 0 0 0 1 0 79.35000000000005&#10;    Z&#10;  " style="fill: rgb(69, 90, 100); fill-opacity: 1; stroke-width: 0; stroke: rgb(69, 90, 100);"/></g><g class="horizontal-bar-texts"><text class="horizontal-bar-text" fill="#545454" font-size="16" font-family="思源黑体 常规" x="379.9292656515731" y="462.875" dy="18.558333333333334" dx="0" style="display: none; opacity: 1; visibility: hidden;">12</text><text class="horizontal-bar-text" fill="#545454" font-size="16" font-family="思源黑体 常规" x="284.94694923867985" y="357.07500000000005" dy="18.558333333333334" dx="0" style="display: none; opacity: 1; visibility: hidden;">9</text><text class="horizontal-bar-text" fill="#545454" font-size="16" font-family="思源黑体 常规" x="664.876214890253" y="251.27500000000003" dy="18.558333333333334" dx="0" style="display: none; opacity: 1; visibility: hidden;">21</text><text class="horizontal-bar-text" fill="#545454" font-size="16" font-family="思源黑体 常规" x="443.2508099268353" y="145.47500000000002" dy="18.558333333333334" dx="0" style="display: none; opacity: 1; visibility: hidden;">14</text><text class="horizontal-bar-text" fill="#545454" font-size="16" font-family="思源黑体 常规" x="474.9115820644664" y="39.67500000000007" dy="18.558333333333334" dx="0" style="display: none; opacity: 1; visibility: visible;">15</text></g></g></g><rect class="selectOverlay-rect" x="0" y="0" width="698.1200256347656" height="105.8" style="display: none; fill: rgb(204, 204, 204); opacity: 0.15;"/><g class="bands-overlay" transform="translate(0,0 )" style="opacity: 0;"><rect class="band-0" x="0" y="0" width="698.1200256347656" height="105.8" style="fill: rgb(0, 0, 0);"/><rect class="band-1" x="0" y="105.8" width="698.1200256347656" height="105.8" style="fill: rgb(0, 0, 0);"/><rect class="band-2" x="0" y="211.6" width="698.1200256347656" height="105.8" style="fill: rgb(0, 0, 0);"/><rect class="band-3" x="0" y="317.4" width="698.1200256347656" height="105.8" style="fill: rgb(0, 0, 0);"/><rect class="band-4" x="0" y="423.2" width="698.1200256347656" height="105.8" style="fill: rgb(0, 0, 0);"/></g></g></g><text transform="translate(0,0)" style="display: none;"/><g class="unit-group" transform="translate(0,0)" style="display: none;"/><g class="source-group" transform="translate(0,555)" style="display: none;"/><g class="legend" transform="translate(0,0)" style="display: none;"><g/></g></g></svg>