<svg t="1597037687063" class="icon" viewBox="0 0 1024 1024" version="1.1" xmlns="http://www.w3.org/2000/svg" p-id="3925" width="200" height="200"><path d="M512 1024c-281.6 0-512-230.4-512-512s230.4-512 512-512 512 230.4 512 512S793.6 1024 512 1024zM512 64C262.4 64 64 262.4 64 512s198.4 448 448 448 448-198.4 448-448S761.6 64 512 64z" p-id="3926"></path><path d="M736 544l-448 0C268.8 544 256 531.2 256 512s12.8-32 32-32l448 0C755.2 480 768 492.8 768 512S755.2 544 736 544z" p-id="3927"></path></svg>