<?xml version="1.0" encoding="utf-8"?>
<svg version="1.1" xmlns:xlink="http://www.w3.org/1999/xlink" width="9px" height="16px" xmlns="http://www.w3.org/2000/svg">
  <g transform="matrix(1 0 0 1 -1171 -590 )">
    <path d="M 8.84536082474227 7.6312625250501  C 8.94845360824742 7.73814295257181  9 7.86105544422178  9 8  C 9 8.13894455577822  8.94845360824742 8.26185704742819  8.84536082474227 8.3687374749499  L 1.63917525773196 15.8396793587174  C 1.5360824742268 15.9465597862391  1.41752577319588 16  1.28350515463918 16  C 1.14948453608247 16  1.03092783505155 15.9465597862391  0.927835051546392 15.8396793587174  L 0.154639175257732 15.0380761523046  C 0.0515463917525774 14.9311957247829  0 14.8082832331329  0 14.6693386773547  C 0 14.5303941215765  0.0515463917525774 14.4074816299265  0.154639175257732 14.3006012024048  L 6.2319587628866 8  L 0.154639175257732 1.69939879759519  C 0.0515463917525774 1.59251837007348  0 1.46960587842351  0 1.33066132264529  C 0 1.19171676686707  0.0515463917525774 1.0688042752171  0.154639175257732 0.96192384769539  L 0.927835051546392 0.160320641282565  C 1.03092783505155 0.0534402137608545  1.14948453608247 0  1.28350515463918 0  C 1.41752577319588 0  1.5360824742268 0.0534402137608545  1.63917525773196 0.160320641282565  L 8.84536082474227 7.6312625250501  Z " fill-rule="nonzero" fill="#333333" stroke="none" transform="matrix(1 0 0 1 1171 590 )" />
  </g>
</svg>