<?xml version="1.0" encoding="utf-8"?>
<svg version="1.1" xmlns:xlink="http://www.w3.org/1999/xlink" width="16px" height="16px" xmlns="http://www.w3.org/2000/svg">
  <defs>
    <path d="M 0 0  L 1024 0  L 1024 1024  L 0 1024  Z " fill-rule="evenodd" fill="black" id="path13" />
    <clipPath id="clip14">
      <use xlink:href="#path13" />
    </clipPath>
    <filter x="-50.00%" y="-50.00%" width="200.00%" height="200.00%" filterUnits="objectBoundingBox" id="filter15">
      <feColorMatrix type="matrix" values="1 0 0 0 0  0 1 0 0 0  0 0 1 0 0  0 0 0 1 0  " in="SourceGraphic" />
    </filter>
  </defs>
  <g transform="matrix(1 0 0 1 -1194 -782 )">
    <g transform="matrix(0.015625 0 0 0.015625 1194 782 )" clip-path="url(#clip14)" filter="url(#filter15)">
      <path d="M419.612 837.177c98.532 0 191.716-33.906 266.468-96.142l269.084 269.084c7.51 7.51 17.408 11.264 27.307 11.264s19.797-3.755 27.307-11.264c15.132-15.132 15.132-39.595 0-54.613l-268.97-269.198c136.077-163.84 127.43-408.121-26.056-561.608C635.904 45.966 531.115 2.503 419.612 2.503c-111.502 0-216.291 43.463-295.14 122.197-162.701 162.703-162.701 427.464 0 590.166 78.963 78.962 183.752 122.31 295.14 122.31zM179.2 179.427c64.284-64.17 149.618-99.555 240.412-99.555 90.795 0 176.242 35.385 240.413 99.556 132.551 132.55 132.551 348.387 0 480.938-64.285 64.17-149.618 99.556-240.413 99.556S243.484 724.537 179.2 660.366c-132.551-132.665-132.551-348.387 0-480.938z" p-id="38233" fill="#455A64"></path>
    </g>
  </g>
</svg>